<?xml version="1.0" encoding="UTF-8" standalone="no"?>
<!-- Created with Inkscape (http://www.inkscape.org/) -->

<svg
   xmlns:dc="http://purl.org/dc/elements/1.1/"
   xmlns:cc="http://creativecommons.org/ns#"
   xmlns:rdf="http://www.w3.org/1999/02/22-rdf-syntax-ns#"
   xmlns:svg="http://www.w3.org/2000/svg"
   xmlns="http://www.w3.org/2000/svg"
   xmlns:xlink="http://www.w3.org/1999/xlink"
   xmlns:sodipodi="http://sodipodi.sourceforge.net/DTD/sodipodi-0.dtd"
   xmlns:inkscape="http://www.inkscape.org/namespaces/inkscape"
   version="1.1"
   width="284"
   height="142"
   id="svg2"
   xml:space="preserve"
   inkscape:version="0.47 r22583"
   sodipodi:docname="pacemaker_logo.svg"><metadata
     id="metadata3032"><rdf:RDF><cc:Work
         rdf:about=""><dc:format>image/svg+xml</dc:format><dc:type
           rdf:resource="http://purl.org/dc/dcmitype/StillImage" /><dc:title /></cc:Work></rdf:RDF></metadata><sodipodi:namedview
     pagecolor="#ffffff"
     bordercolor="#666666"
     borderopacity="1"
     objecttolerance="10"
     gridtolerance="10"
     guidetolerance="10"
     inkscape:pageopacity="0"
     inkscape:pageshadow="2"
     inkscape:window-width="1103"
     inkscape:window-height="862"
     id="namedview3030"
     showgrid="false"
     inkscape:zoom="2.2350201"
     inkscape:cx="141.38575"
     inkscape:cy="71.657651"
     inkscape:window-x="0"
     inkscape:window-y="0"
     inkscape:window-maximized="0"
     inkscape:current-layer="svg2" /><defs
     id="defs6"><linearGradient
       id="linearGradient3808"><stop
         style="stop-color:#003ac7;stop-opacity:1;"
         offset="0"
         id="stop3810" /><stop
         style="stop-color:#cecbfd;stop-opacity:1;"
         offset="1"
         id="stop3812" /></linearGradient><inkscape:perspective
       sodipodi:type="inkscape:persp3d"
       inkscape:vp_x="0 : 372.04724 : 1"
       inkscape:vp_y="0 : 1000 : 0"
       inkscape:vp_z="1052.3622 : 372.04724 : 1"
       inkscape:persp3d-origin="526.18109 : 248.03149 : 1"
       id="perspective3034" /><linearGradient
       x1="0"
       y1="0"
       x2="1"
       y2="0"
       id="linearGradient26"
       gradientUnits="userSpaceOnUse"
       gradientTransform="matrix(202.74854,0,0,202.74854,331.46045,-322.67773)"
       spreadMethod="pad"><stop
         id="stop28"
         style="stop-color:#ea5b63;stop-opacity:1"
         offset="0" /><stop
         id="stop30"
         style="stop-color:#f29d92;stop-opacity:1"
         offset="1" /></linearGradient><linearGradient
       x1="0"
       y1="0"
       x2="1"
       y2="0"
       id="linearGradient46"
       gradientUnits="userSpaceOnUse"
       gradientTransform="matrix(170.52614,0,0,170.52614,327.94824,-275.06055)"
       spreadMethod="pad"><stop
         id="stop48"
         style="stop-color:#ea5b63;stop-opacity:1"
         offset="0" /><stop
         id="stop50"
         style="stop-color:#f29d92;stop-opacity:1"
         offset="1" /></linearGradient><linearGradient
       x1="0"
       y1="0"
       x2="1"
       y2="0"
       id="linearGradient66"
       gradientUnits="userSpaceOnUse"
       gradientTransform="matrix(170.52621,0,0,170.52621,327.94727,-275.06055)"
       spreadMethod="pad"><stop
         id="stop68"
         style="stop-color:#ea5b63;stop-opacity:1"
         offset="0" /><stop
         id="stop70"
         style="stop-color:#f29d92;stop-opacity:1"
         offset="1" /></linearGradient><linearGradient
       x1="0"
       y1="0"
       x2="1"
       y2="0"
       id="linearGradient86"
       gradientUnits="userSpaceOnUse"
       gradientTransform="matrix(170.52553,0,0,170.52553,327.94775,-275.06055)"
       spreadMethod="pad"><stop
         id="stop88"
         style="stop-color:#ea5b63;stop-opacity:1"
         offset="0" /><stop
         id="stop90"
         style="stop-color:#f29d92;stop-opacity:1"
         offset="1" /></linearGradient><linearGradient
       x1="0"
       y1="0"
       x2="1"
       y2="0"
       id="linearGradient106"
       gradientUnits="userSpaceOnUse"
       gradientTransform="matrix(170.52562,0,0,170.52562,327.94824,-275.26367)"
       spreadMethod="pad"><stop
         id="stop108"
         style="stop-color:#ea5b63;stop-opacity:1"
         offset="0" /><stop
         id="stop110"
         style="stop-color:#f29d92;stop-opacity:1"
         offset="1" /></linearGradient><linearGradient
       x1="0"
       y1="0"
       x2="1"
       y2="0"
       id="linearGradient126"
       gradientUnits="userSpaceOnUse"
       gradientTransform="matrix(170.52614,0,0,170.52614,327.94775,-275.06055)"
       spreadMethod="pad"><stop
         id="stop128"
         style="stop-color:#ea5b63;stop-opacity:1"
         offset="0" /><stop
         id="stop130"
         style="stop-color:#f29d92;stop-opacity:1"
         offset="1" /></linearGradient><linearGradient
       x1="0"
       y1="0"
       x2="1"
       y2="0"
       id="linearGradient146"
       gradientUnits="userSpaceOnUse"
       gradientTransform="matrix(170.52606,0,0,170.52606,327.94678,-278.20117)"
       spreadMethod="pad"><stop
         id="stop148"
         style="stop-color:#ea5b63;stop-opacity:1"
         offset="0" /><stop
         id="stop150"
         style="stop-color:#f29d92;stop-opacity:1"
         offset="1" /></linearGradient><linearGradient
       x1="0"
       y1="0"
       x2="1"
       y2="0"
       id="linearGradient166"
       gradientUnits="userSpaceOnUse"
       gradientTransform="matrix(170.52553,0,0,170.52553,327.94678,-275.06055)"
       spreadMethod="pad"><stop
         id="stop168"
         style="stop-color:#ea5b63;stop-opacity:1"
         offset="0" /><stop
         id="stop170"
         style="stop-color:#f29d92;stop-opacity:1"
         offset="1" /></linearGradient><linearGradient
       x1="0"
       y1="0"
       x2="1"
       y2="0"
       id="linearGradient186"
       gradientUnits="userSpaceOnUse"
       gradientTransform="matrix(170.52654,0,0,170.52654,327.94727,-275.26367)"
       spreadMethod="pad"><stop
         id="stop188"
         style="stop-color:#ea5b63;stop-opacity:1"
         offset="0" /><stop
         id="stop190"
         style="stop-color:#f29d92;stop-opacity:1"
         offset="1" /></linearGradient><linearGradient
       x1="0"
       y1="0"
       x2="1"
       y2="0"
       id="linearGradient206"
       gradientUnits="userSpaceOnUse"
       gradientTransform="matrix(170.52614,0,0,170.52614,327.94629,-278.47363)"
       spreadMethod="pad"><stop
         id="stop208"
         style="stop-color:#ea5b63;stop-opacity:1"
         offset="0" /><stop
         id="stop210"
         style="stop-color:#f29d92;stop-opacity:1"
         offset="1" /></linearGradient><linearGradient
       inkscape:collect="always"
       xlink:href="#linearGradient3808"
       id="linearGradient3814"
       x1="307.9917"
       y1="322.6781"
       x2="534.20892"
       y2="322.6781"
       gradientUnits="userSpaceOnUse" /><linearGradient
       inkscape:collect="always"
       xlink:href="#linearGradient3808"
       id="linearGradient2896"
       gradientUnits="userSpaceOnUse"
       x1="307.9917"
       y1="322.6781"
       x2="534.20892"
       y2="322.6781" /><linearGradient
       inkscape:collect="always"
       xlink:href="#linearGradient3808"
       id="linearGradient2898"
       gradientUnits="userSpaceOnUse"
       x1="307.9917"
       y1="322.6781"
       x2="534.20892"
       y2="322.6781" /><linearGradient
       inkscape:collect="always"
       xlink:href="#linearGradient3808"
       id="linearGradient2900"
       gradientUnits="userSpaceOnUse"
       x1="307.9917"
       y1="322.6781"
       x2="534.20892"
       y2="322.6781" /><linearGradient
       inkscape:collect="always"
       xlink:href="#linearGradient3808"
       id="linearGradient2902"
       gradientUnits="userSpaceOnUse"
       x1="307.9917"
       y1="322.6781"
       x2="534.20892"
       y2="322.6781" /><linearGradient
       inkscape:collect="always"
       xlink:href="#linearGradient3808"
       id="linearGradient2904"
       gradientUnits="userSpaceOnUse"
       x1="307.9917"
       y1="322.6781"
       x2="534.20892"
       y2="322.6781" /><linearGradient
       inkscape:collect="always"
       xlink:href="#linearGradient3808"
       id="linearGradient2906"
       gradientUnits="userSpaceOnUse"
       x1="307.9917"
       y1="322.6781"
       x2="534.20892"
       y2="322.6781" /><linearGradient
       inkscape:collect="always"
       xlink:href="#linearGradient3808"
       id="linearGradient2908"
       gradientUnits="userSpaceOnUse"
       x1="307.9917"
       y1="322.6781"
       x2="534.20892"
       y2="322.6781" /><linearGradient
       inkscape:collect="always"
       xlink:href="#linearGradient3808"
       id="linearGradient2910"
       gradientUnits="userSpaceOnUse"
       x1="307.9917"
       y1="322.6781"
       x2="534.20892"
       y2="322.6781" /><linearGradient
       inkscape:collect="always"
       xlink:href="#linearGradient3808"
       id="linearGradient2912"
       gradientUnits="userSpaceOnUse"
       x1="307.9917"
       y1="322.6781"
       x2="534.20892"
       y2="322.6781" /><linearGradient
       inkscape:collect="always"
       xlink:href="#linearGradient3808"
       id="linearGradient2914"
       gradientUnits="userSpaceOnUse"
       x1="307.9917"
       y1="322.6781"
       x2="534.20892"
       y2="322.6781" /><linearGradient
       inkscape:collect="always"
       xlink:href="#linearGradient3808"
       id="linearGradient2916"
       gradientUnits="userSpaceOnUse"
       x1="307.9917"
       y1="322.6781"
       x2="534.20892"
       y2="322.6781" /><linearGradient
       inkscape:collect="always"
       xlink:href="#linearGradient3808"
       id="linearGradient2918"
       gradientUnits="userSpaceOnUse"
       x1="307.9917"
       y1="322.6781"
       x2="534.20892"
       y2="322.6781" /><linearGradient
       inkscape:collect="always"
       xlink:href="#linearGradient3808"
       id="linearGradient2920"
       gradientUnits="userSpaceOnUse"
       x1="307.9917"
       y1="322.6781"
       x2="534.20892"
       y2="322.6781" /><linearGradient
       inkscape:collect="always"
       xlink:href="#linearGradient3808"
       id="linearGradient2922"
       gradientUnits="userSpaceOnUse"
       x1="307.9917"
       y1="322.6781"
       x2="534.20892"
       y2="322.6781" /><linearGradient
       inkscape:collect="always"
       xlink:href="#linearGradient3808"
       id="linearGradient2924"
       gradientUnits="userSpaceOnUse"
       x1="307.9917"
       y1="322.6781"
       x2="534.20892"
       y2="322.6781" /><linearGradient
       inkscape:collect="always"
       xlink:href="#linearGradient3808"
       id="linearGradient2926"
       gradientUnits="userSpaceOnUse"
       x1="307.9917"
       y1="322.6781"
       x2="534.20892"
       y2="322.6781" /><linearGradient
       inkscape:collect="always"
       xlink:href="#linearGradient3808"
       id="linearGradient2928"
       gradientUnits="userSpaceOnUse"
       x1="307.9917"
       y1="322.6781"
       x2="534.20892"
       y2="322.6781" /><linearGradient
       inkscape:collect="always"
       xlink:href="#linearGradient3808"
       id="linearGradient2930"
       gradientUnits="userSpaceOnUse"
       x1="307.9917"
       y1="322.6781"
       x2="534.20892"
       y2="322.6781" /><linearGradient
       inkscape:collect="always"
       xlink:href="#linearGradient3808"
       id="linearGradient2932"
       gradientUnits="userSpaceOnUse"
       x1="307.9917"
       y1="322.6781"
       x2="534.20892"
       y2="322.6781" /><linearGradient
       inkscape:collect="always"
       xlink:href="#linearGradient3808"
       id="linearGradient2934"
       gradientUnits="userSpaceOnUse"
       x1="307.9917"
       y1="322.6781"
       x2="534.20892"
       y2="322.6781" /><linearGradient
       inkscape:collect="always"
       xlink:href="#linearGradient3808"
       id="linearGradient2936"
       gradientUnits="userSpaceOnUse"
       x1="307.9917"
       y1="322.6781"
       x2="534.20892"
       y2="322.6781" /><linearGradient
       inkscape:collect="always"
       xlink:href="#linearGradient3808"
       id="linearGradient2938"
       gradientUnits="userSpaceOnUse"
       x1="307.9917"
       y1="322.6781"
       x2="534.20892"
       y2="322.6781" /><linearGradient
       inkscape:collect="always"
       xlink:href="#linearGradient3808"
       id="linearGradient2940"
       gradientUnits="userSpaceOnUse"
       x1="307.9917"
       y1="322.6781"
       x2="534.20892"
       y2="322.6781" /><linearGradient
       inkscape:collect="always"
       xlink:href="#linearGradient3808"
       id="linearGradient2942"
       gradientUnits="userSpaceOnUse"
       x1="307.9917"
       y1="322.6781"
       x2="534.20892"
       y2="322.6781" /><linearGradient
       inkscape:collect="always"
       xlink:href="#linearGradient3808"
       id="linearGradient2944"
       gradientUnits="userSpaceOnUse"
       x1="307.9917"
       y1="322.6781"
       x2="534.20892"
       y2="322.6781" /><linearGradient
       inkscape:collect="always"
       xlink:href="#linearGradient3808"
       id="linearGradient2946"
       gradientUnits="userSpaceOnUse"
       x1="307.9917"
       y1="322.6781"
       x2="534.20892"
       y2="322.6781" /><linearGradient
       inkscape:collect="always"
       xlink:href="#linearGradient3808"
       id="linearGradient2948"
       gradientUnits="userSpaceOnUse"
       x1="307.9917"
       y1="322.6781"
       x2="534.20892"
       y2="322.6781" /><linearGradient
       inkscape:collect="always"
       xlink:href="#linearGradient3808"
       id="linearGradient2950"
       gradientUnits="userSpaceOnUse"
       x1="307.9917"
       y1="322.6781"
       x2="534.20892"
       y2="322.6781" /><linearGradient
       inkscape:collect="always"
       xlink:href="#linearGradient3808"
       id="linearGradient2952"
       gradientUnits="userSpaceOnUse"
       x1="307.9917"
       y1="322.6781"
       x2="534.20892"
       y2="322.6781" /><linearGradient
       inkscape:collect="always"
       xlink:href="#linearGradient3808"
       id="linearGradient2954"
       gradientUnits="userSpaceOnUse"
       x1="307.9917"
       y1="322.6781"
       x2="534.20892"
       y2="322.6781" /><linearGradient
       inkscape:collect="always"
       xlink:href="#linearGradient3808"
       id="linearGradient2956"
       gradientUnits="userSpaceOnUse"
       x1="307.9917"
       y1="322.6781"
       x2="534.20892"
       y2="322.6781" /><linearGradient
       inkscape:collect="always"
       xlink:href="#linearGradient3808"
       id="linearGradient2958"
       gradientUnits="userSpaceOnUse"
       x1="307.9917"
       y1="322.6781"
       x2="534.20892"
       y2="322.6781" /><linearGradient
       inkscape:collect="always"
       xlink:href="#linearGradient3808"
       id="linearGradient2960"
       gradientUnits="userSpaceOnUse"
       x1="307.9917"
       y1="322.6781"
       x2="534.20892"
       y2="322.6781" /><linearGradient
       inkscape:collect="always"
       xlink:href="#linearGradient3808"
       id="linearGradient2962"
       gradientUnits="userSpaceOnUse"
       x1="307.9917"
       y1="322.6781"
       x2="534.20892"
       y2="322.6781" /><linearGradient
       inkscape:collect="always"
       xlink:href="#linearGradient3808"
       id="linearGradient2964"
       gradientUnits="userSpaceOnUse"
       x1="307.9917"
       y1="322.6781"
       x2="534.20892"
       y2="322.6781" /><linearGradient
       inkscape:collect="always"
       xlink:href="#linearGradient3808"
       id="linearGradient2966"
       gradientUnits="userSpaceOnUse"
       x1="307.9917"
       y1="322.6781"
       x2="534.20892"
       y2="322.6781" /><linearGradient
       inkscape:collect="always"
       xlink:href="#linearGradient3808"
       id="linearGradient2968"
       gradientUnits="userSpaceOnUse"
       x1="307.9917"
       y1="322.6781"
       x2="534.20892"
       y2="322.6781" /><linearGradient
       inkscape:collect="always"
       xlink:href="#linearGradient3808"
       id="linearGradient2970"
       gradientUnits="userSpaceOnUse"
       x1="307.9917"
       y1="322.6781"
       x2="534.20892"
       y2="322.6781" /><linearGradient
       inkscape:collect="always"
       xlink:href="#linearGradient3808"
       id="linearGradient2972"
       gradientUnits="userSpaceOnUse"
       x1="307.9917"
       y1="322.6781"
       x2="534.20892"
       y2="322.6781" /><linearGradient
       inkscape:collect="always"
       xlink:href="#linearGradient3808"
       id="linearGradient2974"
       gradientUnits="userSpaceOnUse"
       x1="307.9917"
       y1="322.6781"
       x2="534.20892"
       y2="322.6781" /><linearGradient
       inkscape:collect="always"
       xlink:href="#linearGradient3808"
       id="linearGradient2976"
       gradientUnits="userSpaceOnUse"
       x1="307.9917"
       y1="322.6781"
       x2="534.20892"
       y2="322.6781" /><linearGradient
       inkscape:collect="always"
       xlink:href="#linearGradient3808"
       id="linearGradient2978"
       gradientUnits="userSpaceOnUse"
       x1="307.9917"
       y1="322.6781"
       x2="534.20892"
       y2="322.6781" /><linearGradient
       inkscape:collect="always"
       xlink:href="#linearGradient3808"
       id="linearGradient2980"
       gradientUnits="userSpaceOnUse"
       x1="307.9917"
       y1="322.6781"
       x2="534.20892"
       y2="322.6781" /><linearGradient
       inkscape:collect="always"
       xlink:href="#linearGradient3808"
       id="linearGradient2982"
       gradientUnits="userSpaceOnUse"
       x1="307.9917"
       y1="322.6781"
       x2="534.20892"
       y2="322.6781" /><linearGradient
       inkscape:collect="always"
       xlink:href="#linearGradient3808"
       id="linearGradient2984"
       gradientUnits="userSpaceOnUse"
       x1="307.9917"
       y1="322.6781"
       x2="534.20892"
       y2="322.6781" /><linearGradient
       inkscape:collect="always"
       xlink:href="#linearGradient3808"
       id="linearGradient2986"
       gradientUnits="userSpaceOnUse"
       x1="307.9917"
       y1="322.6781"
       x2="534.20892"
       y2="322.6781" /><linearGradient
       inkscape:collect="always"
       xlink:href="#linearGradient3808"
       id="linearGradient2988"
       gradientUnits="userSpaceOnUse"
       x1="307.9917"
       y1="322.6781"
       x2="534.20892"
       y2="322.6781" /><linearGradient
       inkscape:collect="always"
       xlink:href="#linearGradient3808"
       id="linearGradient2990"
       gradientUnits="userSpaceOnUse"
       x1="307.9917"
       y1="322.6781"
       x2="534.20892"
       y2="322.6781" /><linearGradient
       inkscape:collect="always"
       xlink:href="#linearGradient3808"
       id="linearGradient2992"
       gradientUnits="userSpaceOnUse"
       x1="307.9917"
       y1="322.6781"
       x2="534.20892"
       y2="322.6781" /><linearGradient
       inkscape:collect="always"
       xlink:href="#linearGradient3808"
       id="linearGradient2994"
       gradientUnits="userSpaceOnUse"
       x1="307.9917"
       y1="322.6781"
       x2="534.20892"
       y2="322.6781" /></defs><g
     transform="matrix(1.25,0,0,-1.25,-384.98962,475.00526)"
     id="g12"
     style="fill:url(#linearGradient3814);fill-opacity:1"><g
       transform="scale(1,-1)"
       id="g14"
       style="fill:url(#linearGradient2904);fill-opacity:1"><g
         id="g16"
         style="fill:url(#linearGradient2902);fill-opacity:1"><g
           id="g22"
           style="fill:url(#linearGradient2900);fill-opacity:1"><g
             id="g24"
             style="fill:url(#linearGradient2898);fill-opacity:1"><path
               d="m 354.3042,-307.84424 c 24.22559,-7.51855 104.01807,-33.7666 179.47119,41.11475 1.14063,1.33105 -0.24414,1.71582 -1.00976,1.07422 -39.3711,-33.02784 -109.92579,-58.3335 -185.87256,-26.41797 -13.11621,5.51269 -22.42969,-9.88135 -8.55274,-19.38086 12.04785,-8.25342 72.40967,-51.12647 93.12647,-58.15967 20.71484,-7.03223 39.7207,-12.35449 41.62109,-9.69238 1.90234,2.66015 -14.78516,13.03222 -24.13672,22.23828 -24.13672,23.75488 -52.07422,31.73535 -72.22314,37.82129 -20.14356,6.07959 -21.85254,7.79248 -24.89551,8.92871 -3.04102,1.14258 -3.04102,4.18213 2.47168,2.47363 z"
               id="path32"
               style="fill:url(#linearGradient2896);fill-opacity:1;stroke:none" /></g></g></g></g><g
       transform="scale(1,-1)"
       id="g34"
       style="fill:url(#linearGradient2914);fill-opacity:1"><g
         id="g36"
         style="fill:url(#linearGradient2912);fill-opacity:1"><g
           id="g42"
           style="fill:url(#linearGradient2910);fill-opacity:1"><g
             id="g44"
             style="fill:url(#linearGradient2908);fill-opacity:1"><path
               d="m 335.06348,-279.8418 c -1.26319,0 -2.3125,0.44434 -3.14746,1.33301 -0.83545,0.88867 -1.25293,2.02832 -1.25293,3.41797 0,1.40039 0.4248,2.55273 1.27539,3.45605 0.85009,0.90332 1.89648,1.35547 3.13965,1.35547 1.28271,0 2.34667,-0.44433 3.19189,-1.333 0.84521,-0.88868 1.26807,-2.05274 1.26807,-3.49317 0,-1.40918 -0.42286,-2.55176 -1.26807,-3.4248 -0.84522,-0.875 -1.91406,-1.31153 -3.20654,-1.31153 z m 4.28711,-3.34375 c 0,0 4.09375,0 4.09375,0 0,0 0,16.25 0,16.25 0,0 -4.09375,0 -4.09375,0 0,0 0,-1.73144 0,-1.73144 -0.79639,0.75781 -1.59522,1.30273 -2.39649,1.63672 -0.80127,0.33398 -1.66943,0.50097 -2.60498,0.50097 -2.10058,0 -3.91699,-0.8125 -5.44971,-2.43847 -1.53271,-1.625 -2.29882,-3.64649 -2.29882,-6.0625 0,-2.50586 0.74121,-4.5586 2.22461,-6.16016 1.48291,-1.60059 3.28418,-2.40137 5.40429,-2.40137 0.97559,0 1.89112,0.18262 2.74707,0.54981 0.85596,0.36523 1.64746,0.91601 2.37403,1.64844 0,0 0,-1.792 0,-1.792 z"
               id="path52"
               style="fill:url(#linearGradient2906);fill-opacity:1;stroke:none" /></g></g></g></g><g
       transform="scale(1,-1)"
       id="g54"
       style="fill:url(#linearGradient2924);fill-opacity:1"><g
         id="g56"
         style="fill:url(#linearGradient2922);fill-opacity:1"><g
           id="g62"
           style="fill:url(#linearGradient2920);fill-opacity:1"><g
             id="g64"
             style="fill:url(#linearGradient2918);fill-opacity:1"><path
               d="m 363.01953,-279.89355 c 0,0 -3.38672,1.86425 -3.38672,1.86425 -0.63672,-0.66894 -1.26611,-1.13183 -1.88769,-1.3916 -0.62158,-0.25976 -1.3501,-0.38965 -2.18555,-0.38965 -1.52197,0 -2.75293,0.4541 -3.69287,1.36035 -0.93994,0.90821 -1.40967,2.07032 -1.40967,3.48633 0,1.37891 0.45215,2.50391 1.35645,3.37598 0.90429,0.87207 2.09228,1.30859 3.56396,1.30859 1.81836,0 3.23486,-0.625 4.24902,-1.875 0,0 3.20557,2.21094 3.20557,2.21094 -1.74072,2.27637 -4.19726,3.41406 -7.36963,3.41406 -2.85449,0 -5.08984,-0.84472 -6.70605,-2.53515 -1.61621,-1.69043 -2.42432,-3.66895 -2.42432,-5.93653 0,-1.57031 0.39307,-3.01757 1.1792,-4.33984 0.78613,-1.32227 1.88281,-2.36133 3.29102,-3.11719 1.4082,-0.75586 2.98291,-1.13379 4.72412,-1.13379 1.6123,0 3.06006,0.32129 4.34375,0.96192 1.2832,0.6416 2.33301,1.55371 3.14941,2.73633 z"
               id="path72"
               style="fill:url(#linearGradient2916);fill-opacity:1;stroke:none" /></g></g></g></g><g
       transform="scale(1,-1)"
       id="g74"
       style="fill:url(#linearGradient2934);fill-opacity:1"><g
         id="g76"
         style="fill:url(#linearGradient2932);fill-opacity:1"><g
           id="g82"
           style="fill:url(#linearGradient2930);fill-opacity:1"><g
             id="g84"
             style="fill:url(#linearGradient2928);fill-opacity:1"><path
               d="m 377.68555,-277.0918 c -0.27051,-0.89746 -0.80323,-1.62597 -1.59912,-2.18847 -0.7959,-0.56153 -1.71973,-0.84278 -2.771,-0.84278 -1.1416,0 -2.14258,0.31543 -3.00342,0.94629 -0.54053,0.39453 -1.04101,1.08985 -1.50146,2.08496 0,0 8.875,0 8.875,0 z m 4.07812,3.1875 c 0,0 -13.14062,0 -13.14062,0 0.18945,1.15625 0.69482,2.0752 1.51709,2.75782 0.82177,0.68261 1.8706,1.02343 3.14599,1.02343 1.52442,0 2.83448,-0.53222 3.93067,-1.59863 0,0 3.4375,1.61523 3.4375,1.61523 -0.85645,1.21778 -1.88233,2.11817 -3.07715,2.70118 -1.19531,0.58398 -2.61426,0.87597 -4.25733,0.87597 -2.5498,0 -4.62597,-0.80273 -6.22949,-2.40918 -1.60351,-1.60547 -2.40478,-3.61621 -2.40478,-6.0332 0,-2.47461 0.80078,-4.53125 2.40234,-6.16602 1.60156,-1.63671 3.60986,-2.4541 6.0249,-2.4541 2.56446,0 4.64991,0.81641 6.25635,2.44825 1.60645,1.63183 2.41016,3.7871 2.41016,6.46484 0,0 -0.0156,0.77441 -0.0156,0.77441 z"
               id="path92"
               style="fill:url(#linearGradient2926);fill-opacity:1;stroke:none" /></g></g></g></g><g
       transform="scale(1,-1)"
       id="g94"
       style="fill:url(#linearGradient2944);fill-opacity:1"><g
         id="g96"
         style="fill:url(#linearGradient2942);fill-opacity:1"><g
           id="g102"
           style="fill:url(#linearGradient2940);fill-opacity:1"><g
             id="g104"
             style="fill:url(#linearGradient2938);fill-opacity:1"><path
               d="m 385.01367,-283.18555 c 0,0 4.09375,0 4.09375,0 0,0 0,1.89942 0,1.89942 0.69727,-0.77344 1.47071,-1.35157 2.32227,-1.73242 0.85156,-0.38282 1.78125,-0.57325 2.78711,-0.57325 1.01562,0 1.93164,0.25196 2.74902,0.75489 0.81641,0.5039 1.47363,1.23828 1.97168,2.20507 0.64844,-0.96679 1.44141,-1.70117 2.38281,-2.20507 0.94141,-0.50293 1.97071,-0.75489 3.08594,-0.75489 1.15527,0 2.17188,0.26856 3.04785,0.80567 0.87598,0.53711 1.50684,1.23925 1.88965,2.10547 0.38379,0.86523 0.57617,2.27343 0.57617,4.22265 0,0 0,9.52246 0,9.52246 0,0 -4.09375,0 -4.09375,0 0,0 0,-8.208 0,-8.208 0,-1.83399 -0.23047,-3.07422 -0.69043,-3.72461 -0.45996,-0.64844 -1.14941,-0.97364 -2.06836,-0.97364 -0.70019,0 -1.32715,0.19825 -1.88183,0.59473 -0.55469,0.39648 -0.9668,0.94434 -1.23633,1.64258 -0.26953,0.69922 -0.4043,1.82226 -0.4043,3.36816 0,0 0,7.30078 0,7.30078 0,0 -4.09375,0 -4.09375,0 0,0 0,-7.83593 0,-7.83593 0,-1.44727 -0.10742,-2.49512 -0.32226,-3.14454 -0.21485,-0.64941 -0.53711,-1.13183 -0.96485,-1.45019 -0.42968,-0.31641 -0.94726,-0.47559 -1.55664,-0.47559 -0.67773,0 -1.29394,0.20117 -1.84765,0.60254 -0.55372,0.40137 -0.9668,0.96387 -1.24219,1.6875 -0.27344,0.72363 -0.41016,1.86328 -0.41016,3.41992 0,0 0,7.19629 0,7.19629 0,0 -4.09375,0 -4.09375,0 0,0 0,-16.25 0,-16.25 z"
               id="path112"
               style="fill:url(#linearGradient2936);fill-opacity:1;stroke:none" /></g></g></g></g><g
       transform="scale(1,-1)"
       id="g114"
       style="fill:url(#linearGradient2954);fill-opacity:1"><g
         id="g116"
         style="fill:url(#linearGradient2952);fill-opacity:1"><g
           id="g122"
           style="fill:url(#linearGradient2950);fill-opacity:1"><g
             id="g124"
             style="fill:url(#linearGradient2948);fill-opacity:1"><path
               d="m 421.01367,-279.8418 c -1.26269,0 -2.3125,0.44434 -3.14648,1.33301 -0.83594,0.88867 -1.25391,2.02832 -1.25391,3.41797 0,1.40039 0.42578,2.55273 1.27539,3.45605 0.85059,0.90332 1.89649,1.35547 3.14063,1.35547 1.28222,0 2.3457,-0.44433 3.1914,-1.333 0.84571,-0.88868 1.26758,-2.05274 1.26758,-3.49317 0,-1.40918 -0.42187,-2.55176 -1.26758,-3.4248 -0.8457,-0.875 -1.91406,-1.31153 -3.20703,-1.31153 z m 4.28711,-3.34375 c 0,0 4.09375,0 4.09375,0 0,0 0,16.25 0,16.25 0,0 -4.09375,0 -4.09375,0 0,0 0,-1.73144 0,-1.73144 -0.7959,0.75781 -1.59473,1.30273 -2.39648,1.63672 -0.80078,0.33398 -1.66895,0.50097 -2.6045,0.50097 -2.10058,0 -3.91699,-0.8125 -5.45019,-2.43847 -1.53223,-1.625 -2.29883,-3.64649 -2.29883,-6.0625 0,-2.50586 0.74219,-4.5586 2.22461,-6.16016 1.4834,-1.60059 3.28516,-2.40137 5.4043,-2.40137 0.97656,0 1.8916,0.18262 2.74804,0.54981 0.85547,0.36523 1.64649,0.91601 2.37305,1.64844 0,0 0,-1.792 0,-1.792 z"
               id="path132"
               style="fill:url(#linearGradient2946);fill-opacity:1;stroke:none" /></g></g></g></g><g
       transform="scale(1,-1)"
       id="g134"
       style="fill:url(#linearGradient2964);fill-opacity:1"><g
         id="g136"
         style="fill:url(#linearGradient2962);fill-opacity:1"><g
           id="g142"
           style="fill:url(#linearGradient2960);fill-opacity:1"><g
             id="g144"
             style="fill:url(#linearGradient2958);fill-opacity:1"><path
               d="m 433.85938,-289.4668 c 0,0 4.09375,0 4.09375,0 0,0 0,12.98731 0,12.98731 0,0 5.99707,-6.70606 5.99707,-6.70606 0,0 5.06152,0 5.06152,0 0,0 -6.93359,7.75293 -6.93359,7.75293 0,0 7.8291,8.49707 7.8291,8.49707 0,0 -5.06153,0 -5.06153,0 0,0 -6.89257,-7.48242 -6.89257,-7.48242 0,0 0,7.48242 0,7.48242 0,0 -4.09375,0 -4.09375,0 0,0 0,-22.53125 0,-22.53125 z"
               id="path152"
               style="fill:url(#linearGradient2956);fill-opacity:1;stroke:none" /></g></g></g></g><g
       transform="scale(1,-1)"
       id="g154"
       style="fill:url(#linearGradient2974);fill-opacity:1"><g
         id="g156"
         style="fill:url(#linearGradient2972);fill-opacity:1"><g
           id="g162"
           style="fill:url(#linearGradient2970);fill-opacity:1"><g
             id="g164"
             style="fill:url(#linearGradient2968);fill-opacity:1"><path
               d="m 463.48145,-277.0918 c -0.27051,-0.89746 -0.80372,-1.62597 -1.59864,-2.18847 -0.79687,-0.56153 -1.7207,-0.84278 -2.77148,-0.84278 -1.1416,0 -2.14258,0.31543 -3.00391,0.94629 -0.54004,0.39453 -1.04101,1.08985 -1.50097,2.08496 0,0 8.875,0 8.875,0 z m 4.0791,3.1875 c 0,0 -13.1416,0 -13.1416,0 0.18945,1.15625 0.69433,2.0752 1.5166,2.75782 0.82226,0.68261 1.87109,1.02343 3.14648,1.02343 1.52442,0 2.83399,-0.53222 3.93067,-1.59863 0,0 3.4375,1.61523 3.4375,1.61523 -0.85645,1.21778 -1.88184,2.11817 -3.07715,2.70118 -1.19532,0.58398 -2.61426,0.87597 -4.25782,0.87597 -2.54882,0 -4.625,-0.80273 -6.22851,-2.40918 -1.60352,-1.60547 -2.40527,-3.61621 -2.40527,-6.0332 0,-2.47461 0.80078,-4.53125 2.40234,-6.16602 1.60156,-1.63671 3.61035,-2.4541 6.02441,-2.4541 2.56446,0 4.65039,0.81641 6.25684,2.44825 1.60644,1.63183 2.41016,3.7871 2.41016,6.46484 0,0 -0.0147,0.77441 -0.0147,0.77441 z"
               id="path172"
               style="fill:url(#linearGradient2966);fill-opacity:1;stroke:none" /></g></g></g></g><g
       transform="scale(1,-1)"
       id="g174"
       style="fill:url(#linearGradient2984);fill-opacity:1"><g
         id="g176"
         style="fill:url(#linearGradient2982);fill-opacity:1"><g
           id="g182"
           style="fill:url(#linearGradient2980);fill-opacity:1"><g
             id="g184"
             style="fill:url(#linearGradient2978);fill-opacity:1"><path
               d="m 470.48242,-283.18555 c 0,0 3.53125,0 3.53125,0 0,0 0,2.04785 0,2.04785 0.375,-0.80273 0.875,-1.4121 1.49707,-1.8291 0.62207,-0.41699 1.30469,-0.625 2.0459,-0.625 0.52344,0 1.07227,0.13965 1.64453,0.417 0,0 -1.25586,3.5039 -1.25586,3.5039 -0.47265,-0.23828 -0.86133,-0.3584 -1.16699,-0.3584 -0.62012,0 -1.14551,0.3877 -1.57324,1.16504 -0.42969,0.77539 -0.64356,2.29883 -0.64356,4.56836 0,0 0.0147,0.79102 0.0147,0.79102 0,0 0,6.56933 0,6.56933 0,0 -4.09375,0 -4.09375,0 0,0 0,-16.25 0,-16.25 z"
               id="path192"
               style="fill:url(#linearGradient2976);fill-opacity:1;stroke:none" /></g></g></g></g><g
       transform="scale(1,-1)"
       id="g194"
       style="fill:url(#linearGradient2994);fill-opacity:1"><g
         id="g196"
         style="fill:url(#linearGradient2992);fill-opacity:1"><g
           id="g202"
           style="fill:url(#linearGradient2990);fill-opacity:1"><g
             id="g204"
             style="fill:url(#linearGradient2988);fill-opacity:1"><path
               d="m 316.66992,-286.62988 c -1.2832,0 -2.34717,0.43652 -3.19238,1.31152 -0.84522,0.87305 -1.26758,2.15723 -1.26758,3.56641 0,1.44043 0.42236,2.60449 1.26758,3.49316 0.84521,0.88867 1.90918,1.33301 3.19238,1.33301 1.24268,0 2.37403,-0.45215 3.22461,-1.35547 0.8501,-0.90332 1.27539,-2.05566 1.27539,-3.45605 0,-1.38965 -0.41797,-2.6709 -1.25293,-3.55958 -0.83545,-0.88867 -1.97461,-1.333 -3.24707,-1.333 z m -5.96387,-2.6416 c 2.60059,0 4.01026,-0.74024 6.50928,-0.74024 2.11719,0 3.91651,0.77246 5.39795,2.37305 1.48145,1.60156 2.22217,3.59765 2.22217,6.10351 0,2.41602 -0.8125,4.39453 -2.29639,6.0625 -1.58154,1.77832 -6.67724,3.64551 -10.45361,0.29297 0,0 0,8.24414 0,8.24414 0,0 -4.09375,0 -4.09375,0 0,0 0,-22.33593 0,-22.33593 0,0 1.52344,0 2.71435,0 z"
               id="path212"
               style="fill:url(#linearGradient2986);fill-opacity:1;stroke:none" /></g></g></g></g></g></svg>
