<?xml version="1.0" encoding="UTF-8" standalone="no"?>
<!DOCTYPE svg PUBLIC "-//W3C//DTD SVG 1.1//EN"
 "http://www.w3.org/Graphics/SVG/1.1/DTD/svg11.dtd">
<!-- Generated by graphviz version 2.25.20091012.0445 (20091012.0445)
 -->
<!-- Title: g Pages: 1 -->
<svg width="929pt" height="260pt"
 viewBox="0.00 0.00 929.00 260.00" xmlns="http://www.w3.org/2000/svg" xmlns:xlink="http://www.w3.org/1999/xlink">
<g id="graph1" class="graph" transform="scale(1 1) rotate(0) translate(4 256)">
<title>g</title>
<polygon fill="white" stroke="white" points="-4,5 -4,-256 926,-256 926,5 -4,5"/>
<!-- rsc1_monitor_0 pcmk&#45;2 -->
<g id="node1" class="node"><title>rsc1_monitor_0 pcmk&#45;2</title>
<ellipse fill="none" stroke="green" stroke-width="2" cx="405" cy="-234" rx="96.1457" ry="18"/>
<text text-anchor="middle" x="405" y="-228.4" font-family="Times,serif" font-size="14.00">rsc1_monitor_0 pcmk&#45;2</text>
</g>
<!-- probe_complete pcmk&#45;2 -->
<g id="node3" class="node"><title>probe_complete pcmk&#45;2</title>
<ellipse fill="none" stroke="green" stroke-width="2" cx="615" cy="-162" rx="98.0413" ry="18"/>
<text text-anchor="middle" x="615" y="-156.4" font-family="Times,serif" font-size="14.00">probe_complete pcmk&#45;2</text>
</g>
<!-- rsc1_monitor_0 pcmk&#45;2&#45;&gt;probe_complete pcmk&#45;2 -->
<g id="edge2" class="edge"><title>rsc1_monitor_0 pcmk&#45;2&#45;&gt;probe_complete pcmk&#45;2</title>
<path fill="none" stroke="black" stroke-width="2" d="M451.085,-218.199C482.843,-207.311 525.232,-192.777 558.948,-181.218"/>
<polygon fill="black" stroke="black" points="560.335,-184.442 568.66,-177.888 558.065,-177.821 560.335,-184.442"/>
</g>
<!-- probe_complete -->
<g id="node9" class="node"><title>probe_complete</title>
<ellipse fill="none" stroke="green" stroke-width="2" cx="615" cy="-90" rx="68.8527" ry="18"/>
<text text-anchor="middle" x="615" y="-84.4" font-family="Times,serif" font-size="14.00" fill="orange">probe_complete</text>
</g>
<!-- probe_complete pcmk&#45;2&#45;&gt;probe_complete -->
<g id="edge24" class="edge"><title>probe_complete pcmk&#45;2&#45;&gt;probe_complete</title>
<path fill="none" stroke="black" stroke-width="2" d="M615,-143.831C615,-136.131 615,-126.974 615,-118.417"/>
<polygon fill="black" stroke="black" points="618.5,-118.413 615,-108.413 611.5,-118.413 618.5,-118.413"/>
</g>
<!-- rsc1_stop_0 pcmk&#45;1 -->
<g id="node4" class="node"><title>rsc1_stop_0 pcmk&#45;1</title>
<ellipse fill="none" stroke="red" stroke-dasharray="5,2" cx="264" cy="-90" rx="82.2481" ry="18"/>
<text text-anchor="middle" x="264" y="-84.4" font-family="Times,serif" font-size="14.00">rsc1_stop_0 pcmk&#45;1</text>
</g>
<!-- rsc1_start_0 pcmk&#45;2 -->
<g id="node5" class="node"><title>rsc1_start_0 pcmk&#45;2</title>
<ellipse fill="none" stroke="red" stroke-dasharray="5,2" cx="340" cy="-18" rx="82.2481" ry="18"/>
<text text-anchor="middle" x="340" y="-12.4" font-family="Times,serif" font-size="14.00">rsc1_start_0 pcmk&#45;2</text>
</g>
<!-- rsc1_stop_0 pcmk&#45;1&#45;&gt;rsc1_start_0 pcmk&#45;2 -->
<g id="edge4" class="edge"><title>rsc1_stop_0 pcmk&#45;1&#45;&gt;rsc1_start_0 pcmk&#45;2</title>
<path fill="none" stroke="black" stroke-dasharray="5,2" d="M282.787,-72.2022C292.174,-63.3088 303.684,-52.4042 313.913,-42.7135"/>
<polygon fill="black" stroke="black" points="316.577,-45.0113 321.43,-35.593 311.763,-39.9297 316.577,-45.0113"/>
</g>
<!-- all_stopped -->
<g id="node8" class="node"><title>all_stopped</title>
<ellipse fill="none" stroke="red" stroke-dasharray="5,2" cx="188" cy="-18" rx="51.7974" ry="18"/>
<text text-anchor="middle" x="188" y="-12.4" font-family="Times,serif" font-size="14.00" fill="orange">all_stopped</text>
</g>
<!-- rsc1_stop_0 pcmk&#45;1&#45;&gt;all_stopped -->
<g id="edge6" class="edge"><title>rsc1_stop_0 pcmk&#45;1&#45;&gt;all_stopped</title>
<path fill="none" stroke="black" stroke-dasharray="5,2" d="M245.213,-72.2022C235.592,-63.0876 223.742,-51.8605 213.326,-41.9926"/>
<polygon fill="black" stroke="black" points="215.714,-39.4339 206.047,-35.0972 210.9,-44.5155 215.714,-39.4339"/>
</g>
<!-- probe_complete&#45;&gt;rsc1_start_0 pcmk&#45;2 -->
<g id="edge8" class="edge"><title>probe_complete&#45;&gt;rsc1_start_0 pcmk&#45;2</title>
<path fill="none" stroke="black" stroke-dasharray="5,2" d="M566.152,-77.2108C520.668,-65.3021 452.621,-47.4861 403.053,-34.5083"/>
<polygon fill="black" stroke="black" points="403.645,-31.0455 393.084,-31.8985 401.872,-37.8172 403.645,-31.0455"/>
</g>
<!-- rsc2_start_0 pcmk&#45;2 -->
<g id="node14" class="node"><title>rsc2_start_0 pcmk&#45;2</title>
<ellipse fill="none" stroke="red" stroke-dasharray="5,2" cx="522" cy="-18" rx="82.2481" ry="18"/>
<text text-anchor="middle" x="522" y="-12.4" font-family="Times,serif" font-size="14.00">rsc2_start_0 pcmk&#45;2</text>
</g>
<!-- probe_complete&#45;&gt;rsc2_start_0 pcmk&#45;2 -->
<g id="edge16" class="edge"><title>probe_complete&#45;&gt;rsc2_start_0 pcmk&#45;2</title>
<path fill="none" stroke="black" stroke-dasharray="5,2" d="M592.96,-72.937C580.861,-63.57 565.674,-51.8119 552.457,-41.5796"/>
<polygon fill="black" stroke="black" points="554.577,-38.7949 544.528,-35.4407 550.292,-44.33 554.577,-38.7949"/>
</g>
<!-- rsc3_start_0 pcmk&#45;2 -->
<g id="node21" class="node"><title>rsc3_start_0 pcmk&#45;2</title>
<ellipse fill="none" stroke="blue" stroke-dasharray="5,2" cx="704" cy="-18" rx="82.2481" ry="18"/>
<text text-anchor="middle" x="704" y="-12.4" font-family="Times,serif" font-size="14.00">rsc3_start_0 pcmk&#45;2</text>
</g>
<!-- probe_complete&#45;&gt;rsc3_start_0 pcmk&#45;2 -->
<g id="edge22" class="edge"><title>probe_complete&#45;&gt;rsc3_start_0 pcmk&#45;2</title>
<path fill="none" stroke="black" stroke-dasharray="5,2" d="M636.544,-72.5708C647.939,-63.353 662.098,-51.8983 674.498,-41.8669"/>
<polygon fill="black" stroke="black" points="676.772,-44.5288 682.346,-35.5182 672.37,-39.0867 676.772,-44.5288"/>
</g>
<!-- rsc2_monitor_0 pcmk&#45;2 -->
<g id="node11" class="node"><title>rsc2_monitor_0 pcmk&#45;2</title>
<ellipse fill="none" stroke="green" stroke-width="2" cx="615" cy="-234" rx="96.1457" ry="18"/>
<text text-anchor="middle" x="615" y="-228.4" font-family="Times,serif" font-size="14.00">rsc2_monitor_0 pcmk&#45;2</text>
</g>
<!-- rsc2_monitor_0 pcmk&#45;2&#45;&gt;probe_complete pcmk&#45;2 -->
<g id="edge10" class="edge"><title>rsc2_monitor_0 pcmk&#45;2&#45;&gt;probe_complete pcmk&#45;2</title>
<path fill="none" stroke="black" stroke-width="2" d="M615,-215.831C615,-208.131 615,-198.974 615,-190.417"/>
<polygon fill="black" stroke="black" points="618.5,-190.413 615,-180.413 611.5,-190.413 618.5,-190.413"/>
</g>
<!-- rsc2_stop_0 pcmk&#45;1 -->
<g id="node13" class="node"><title>rsc2_stop_0 pcmk&#45;1</title>
<ellipse fill="none" stroke="red" stroke-dasharray="5,2" cx="446" cy="-90" rx="82.2481" ry="18"/>
<text text-anchor="middle" x="446" y="-84.4" font-family="Times,serif" font-size="14.00">rsc2_stop_0 pcmk&#45;1</text>
</g>
<!-- rsc2_stop_0 pcmk&#45;1&#45;&gt;all_stopped -->
<g id="edge14" class="edge"><title>rsc2_stop_0 pcmk&#45;1&#45;&gt;all_stopped</title>
<path fill="none" stroke="black" stroke-dasharray="5,2" d="M394.076,-76.062C354.309,-65.3159 298.117,-49.977 249,-36 245.225,-34.9257 241.322,-33.8027 237.4,-32.6653"/>
<polygon fill="black" stroke="black" points="238.251,-29.2679 227.671,-29.8275 236.291,-35.9879 238.251,-29.2679"/>
</g>
<!-- rsc2_stop_0 pcmk&#45;1&#45;&gt;rsc2_start_0 pcmk&#45;2 -->
<g id="edge12" class="edge"><title>rsc2_stop_0 pcmk&#45;1&#45;&gt;rsc2_start_0 pcmk&#45;2</title>
<path fill="none" stroke="black" stroke-dasharray="5,2" d="M464.787,-72.2022C474.174,-63.3088 485.684,-52.4042 495.913,-42.7135"/>
<polygon fill="black" stroke="black" points="498.577,-45.0113 503.43,-35.593 493.763,-39.9297 498.577,-45.0113"/>
</g>
<!-- rsc3_monitor_0 pcmk&#45;2 -->
<g id="node18" class="node"><title>rsc3_monitor_0 pcmk&#45;2</title>
<ellipse fill="none" stroke="green" stroke-width="2" cx="825" cy="-234" rx="96.1457" ry="18"/>
<text text-anchor="middle" x="825" y="-228.4" font-family="Times,serif" font-size="14.00">rsc3_monitor_0 pcmk&#45;2</text>
</g>
<!-- rsc3_monitor_0 pcmk&#45;2&#45;&gt;probe_complete pcmk&#45;2 -->
<g id="edge18" class="edge"><title>rsc3_monitor_0 pcmk&#45;2&#45;&gt;probe_complete pcmk&#45;2</title>
<path fill="none" stroke="black" stroke-width="2" d="M778.915,-218.199C747.157,-207.311 704.768,-192.777 671.052,-181.218"/>
<polygon fill="black" stroke="black" points="671.935,-177.821 661.34,-177.888 669.665,-184.442 671.935,-177.821"/>
</g>
<!-- rsc3_stop_0 pcmk&#45;1 -->
<g id="node20" class="node"><title>rsc3_stop_0 pcmk&#45;1</title>
<ellipse fill="none" stroke="blue" stroke-dasharray="5,2" cx="82" cy="-90" rx="82.2481" ry="18"/>
<text text-anchor="middle" x="82" y="-84.4" font-family="Times,serif" font-size="14.00" fill="orange">rsc3_stop_0 pcmk&#45;1</text>
</g>
<!-- rsc3_stop_0 pcmk&#45;1&#45;&gt;all_stopped -->
<g id="edge20" class="edge"><title>rsc3_stop_0 pcmk&#45;1&#45;&gt;all_stopped</title>
<path fill="none" stroke="black" stroke-dasharray="5,2" d="M107.39,-72.7542C121.963,-62.8554 140.4,-50.3319 155.963,-39.761"/>
<polygon fill="black" stroke="black" points="157.965,-42.6324 164.27,-34.1183 154.032,-36.8419 157.965,-42.6324"/>
</g>
</g>
</svg>
